<svg xmlns="http://www.w3.org/2000/svg" width="600" height="800" viewBox="0 0 600 800"><defs><pattern id="grain" width="8" height="8" patternUnits="userSpaceOnUse"><circle cx="1" cy="1" r=".7" fill="#fff2cf" opacity=".15"/></pattern></defs><rect width="600" height="800" fill="#d65337"/><path d="M0 0h300L70 800H0z" fill="#f5b44c"/><circle cx="460" cy="230" r="130" fill="#f9d779"/><path d="M55 800q14-260 245-260t248 260" fill="#313740"/><path d="m250 520-50 120 100 100 104-100-48-120" fill="#f1ad73"/><ellipse cx="305" cy="353" rx="114" ry="155" fill="#f1ad73"/><path d="M190 363q-50-190 92-198 157-19 142 172-36-11-63-99-68 101-171 125" fill="#302b31"/><path d="m221 388 54-3m61-1 54-3" stroke="#433336" stroke-width="13" stroke-linecap="round"/><path d="M272 460q30 22 61-3" stroke="#934b3c" stroke-width="7" fill="none" stroke-linecap="round"/><path d="m200 585 100 155-107-28-21-60zm204 0L300 740l118-28 17-60" fill="#434a51"/><rect width="600" height="800" fill="url(#grain)"/><g fill="#fff5d8" font-family="Georgia,serif"><text x="38" y="67" font-size="23" letter-spacing="5">THE MAIN CHARACTER</text><text x="34" y="752" font-size="64" font-style="italic">Cinema Club.</text></g><text x="40" y="785" fill="#fff5d8" font-size="14" font-family="sans-serif">风格意向插画 · 非 AI 成片示例</text><path d="M35 105h50M35 105v50m530-50h-50m50 0v50M35 690h50m-50 0v-50m530 50h-50m50 0v-50" stroke="#fff5d8" stroke-width="3" fill="none"/></svg>
